<svg width="35" height="35" viewBox="0 0 35 35" fill="none" xmlns="http://www.w3.org/2000/svg">
<g clip-path="url(#clip0_7_53)">
<path d="M6.93149 21.7505L28.2904 14.6202C27.8635 11.951 27.5595 10.1679 27.207 8.80716C26.8274 7.34345 26.5264 6.95189 26.4083 6.81613C25.9964 6.34486 25.4837 5.97247 24.9081 5.72661C24.7418 5.65552 24.2758 5.49036 22.7679 5.58115C21.1725 5.6774 19.0783 6.00333 15.7617 6.52847C12.4463 7.05347 10.3532 7.39157 8.80686 7.79189C7.34397 8.17156 6.95118 8.47343 6.81542 8.59169C6.34489 9.00389 5.97286 9.51641 5.72673 10.0915C5.65563 10.2576 5.49034 10.7237 5.58126 12.2322C5.67751 13.8271 6.00358 15.922 6.52872 19.2377C6.67542 20.1674 6.80776 20.9989 6.93149 21.7505Z" fill="#E9B654" fill-opacity="0.75"/>
<path d="M1.04248 20.106C0.0270738 13.6911 -0.481793 10.4837 0.618929 7.90875C1.19279 6.5656 2.06198 5.36906 3.1619 4.40806C5.27051 2.56701 8.47752 2.05951 14.8918 1.04328C21.3082 0.0256789 24.5155 -0.481684 27.0922 0.618765C28.4348 1.19257 29.6309 2.06152 30.5915 3.16105C32.4341 5.27007 32.9417 8.4775 33.9573 14.8934C34.9738 21.3083 35.4815 24.5167 34.3807 27.0907C33.8072 28.4337 32.9384 29.6302 31.8389 30.5912C29.7303 32.4334 26.5221 32.941 20.1068 33.9572C13.6925 34.9735 10.4843 35.4811 7.90973 34.3805C6.56715 33.8067 5.3711 32.9377 4.41041 31.8382C2.56772 29.7292 2.06008 26.5218 1.04358 20.106H1.04248ZM12.3576 31.4981C14.0755 31.3942 16.288 31.0474 19.563 30.5287C22.839 30.0103 25.0481 29.6559 26.7158 29.2237C28.3298 28.8048 29.0738 28.3967 29.5541 27.9767C30.2608 27.3589 30.8193 26.5898 31.1879 25.7265C31.4394 25.1402 31.598 24.3067 31.4974 22.6417C31.3935 20.9242 31.0466 18.7112 30.5281 15.4359C30.0094 12.1608 29.6558 9.94996 29.2238 8.2839C28.8046 6.66925 28.3954 5.9255 27.9764 5.44521C27.3587 4.73835 26.5898 4.17974 25.7266 3.81087C25.1401 3.55931 24.3064 3.40072 22.6409 3.50121C20.923 3.60511 18.7116 3.95197 15.4357 4.47054C12.1607 4.99007 9.9504 5.34349 8.28393 5.77552C6.66887 6.19457 5.92594 6.60363 5.44565 7.02267C4.73856 7.64036 4.17976 8.40945 3.81077 9.27279C3.56016 9.85917 3.40157 10.6927 3.50219 12.3577C3.6061 14.0763 3.952 16.2881 4.47166 19.5633C4.99038 22.8386 5.34379 25.0494 5.77596 26.7155C6.195 28.3302 6.60311 29.0739 7.02338 29.5542C7.64102 30.261 8.40996 30.8196 9.27309 31.1885C9.85961 31.4401 10.6922 31.5987 12.3588 31.4981H12.3576Z" fill="#E9B654" fill-opacity="0.75"/>
</g>
<defs>
<clipPath id="clip0_7_53">
<rect width="35" height="35" fill="white"/>
</clipPath>
</defs>
</svg>
