<svg width="87" height="87" viewBox="0 0 87 87" fill="none" xmlns="http://www.w3.org/2000/svg">
<g clip-path="url(#clip0_7_142)">
<path d="M17.2297 54.0654L70.3218 36.3415C69.2608 29.7068 68.505 25.2745 67.6289 21.8921C66.6852 18.2537 65.9372 17.2804 65.6436 16.9429C64.6198 15.7715 63.3451 14.8458 61.9144 14.2347C61.5012 14.058 60.3427 13.6475 56.5945 13.8731C52.6289 14.1124 47.4232 14.9225 39.1792 16.2279C30.938 17.5329 25.735 18.3733 21.8914 19.3684C18.2551 20.3121 17.2787 21.0625 16.9412 21.3565C15.7716 22.3811 14.8469 23.6551 14.235 25.0846C14.0583 25.4975 13.6475 26.656 13.8735 30.4058C14.1127 34.3701 14.9232 39.5775 16.2286 47.8194C16.5932 50.1304 16.9222 52.1973 17.2297 54.0654Z" fill="#7E7E7E" fill-opacity="0.35"/>
<path d="M2.5912 49.9776C0.0671756 34.0321 -1.19772 26.0594 1.53836 19.6588C2.96481 16.3201 5.12537 13.3458 7.85945 10.9571C13.1009 6.38073 21.0726 5.11924 37.0167 2.59318C52.9659 0.0637189 60.9383 -1.19744 67.3433 1.53796C70.6806 2.96429 73.6537 5.12424 76.0416 7.85736C80.6217 13.0998 81.8835 21.0725 84.4079 37.0207C86.9346 52.9662 88.1968 60.9413 85.4604 67.3395C84.035 70.6779 81.8754 73.652 79.1424 76.0409C73.901 80.6199 65.9262 81.8818 49.9797 84.4078C34.0356 86.9339 26.0608 88.1957 19.6612 85.46C16.3239 84.0336 13.3509 81.8737 10.9629 79.1406C6.38249 73.8982 5.12065 65.9254 2.59391 49.9776H2.5912ZM30.7173 78.2951C34.9875 78.0368 40.4872 77.1749 48.6278 75.8856C56.7711 74.5969 62.2623 73.716 66.4077 72.6418C70.4196 71.6005 72.269 70.5861 73.4629 69.5421C75.2196 68.0063 76.6077 66.0945 77.524 63.9486C78.1493 62.4913 78.5436 60.4193 78.2934 56.2807C78.0352 52.0116 77.173 46.5105 75.8839 38.3692C74.5946 30.2283 73.7157 24.7326 72.6418 20.5913C71.5999 16.5777 70.5827 14.729 69.5411 13.5351C68.0059 11.7781 66.0945 10.3895 63.949 9.47263C62.491 8.84732 60.4187 8.4531 56.2787 8.70289C52.0086 8.96117 46.5116 9.82335 38.3686 11.1124C30.228 12.4038 24.7337 13.2823 20.5914 14.3562C16.5768 15.3978 14.7301 16.4146 13.5362 17.4562C11.7786 18.9916 10.3896 20.9034 9.47235 23.0494C8.84942 24.507 8.4552 26.579 8.70532 30.7176C8.96361 34.9895 9.82341 40.4875 11.1152 48.6287C12.4045 56.7701 13.283 62.2657 14.3573 66.407C15.3989 70.4206 16.4133 72.2693 17.458 73.4632C18.9933 75.2201 20.9046 76.6087 23.0501 77.5257C24.5081 78.151 26.5777 78.5452 30.7204 78.2951H30.7173Z" fill="#7E7E7E" fill-opacity="0.35"/>
</g>
<defs>
<clipPath id="clip0_7_142">
<rect width="87" height="87" fill="white"/>
</clipPath>
</defs>
</svg>
